{
  "source": "C:\\Users\\Peter\\Desktop\\stuff\\MIUN\\quantitative_research\\video_compression\\videos\\BVI-HD\\BVI-HD_CDVL_videos\\ORIG\\BricksLeaves_1920x1080_60fps.mp4",
  "output": "C:\\Users\\Peter\\Desktop\\stuff\\MIUN\\quantitative_research\\video_compression\\compressed_videos\\BVI-HD\\av1\\2\\BricksLeaves_1920x1080_60fps_av1.mkv",
  "codec": "av1",
  "ok": "Input #0, mov,mp4,m4a,3gp,3g2,mj2, from 'C:\\Users\\Peter\\Desktop\\stuff\\MIUN\\quantitative_research\\video_compression\\videos\\BVI-HD\\BVI-HD_CDVL_videos\\ORIG\\BricksLeaves_1920x1080_60fps.mp4':\n  Metadata:\n    major_brand     : isom\n    minor_version   : 512\n    compatible_brands: isomiso2avc1mp41\n    encoder         : Lavf54.28.101\n  Duration: 00:00:05.00, start: 0.000000, bitrate: 524627 kb/s\n  Stream #0:0[0x1](und): Video: h264 (High 4:4:4 Predictive) (avc1 / 0x31637661), yuv420p(progressive), 1920x1080, 524622 kb/s, 60 fps, 60 tbr, 60 tbn (default)\n    Metadata:\n      handler_name    : VideoHandler\n      vendor_id       : [0][0][0][0]\n[out#0/matroska @ 000002318dbc90c0] Codec AVOption b:a (set bitrate (in bits/s)) has not been used for any stream. The most likely reason is either wrong type (e.g. a video option with no video streams) or that it is a private option of some decoder which was not actually used for any stream.\nStream mapping:\n  Stream #0:0 -> #0:0 (h264 (native) -> av1 (libsvtav1))\nPress [q] to stop, [?] for help\nSvt[info]: -------------------------------------------\nSvt[info]: SVT [version]:\tSVT-AV1 Encoder Lib v3.1.0-19-g6ecfe8ec\nSvt[info]: SVT [build]  :\tGCC 15.2.0\t 64 bit\nSvt[info]: LIB Build date: Aug 17 2025 11:37:13\nSvt[info]: -------------------------------------------\nSvt[info]: Level of Parallelism: 5\nSvt[info]: Number of PPCS 93\nSvt[info]: [asm level on system : up to avx2]\nSvt[info]: [asm level selected : up to avx2]\nSvt[info]: -------------------------------------------\nSvt[info]: SVT [config]: main profile\ttier (auto)\tlevel (auto)\nSvt[info]: SVT [config]: width / height / fps numerator / fps denominator \t\t: 1920 / 1080 / 60 / 1\nSvt[info]: SVT [config]: bit-depth / color format \t\t\t\t\t: 8 / YUV420\nSvt[info]: SVT [config]: preset / tune / pred struct \t\t\t\t\t: 4 / PSNR / random access\nSvt[info]: SVT [config]: gop size / mini-gop size / key-frame type \t\t\t: 321 / 16 / key frame\nSvt[info]: SVT [config]: BRC mode / target bitrate (kbps)\t\t\t\t: VBR / 2000 \nSvt[info]: SVT [config]: AQ mode / Variance Boost \t\t\t\t\t: 2 / 0\nSvt[info]: SVT [config]: sharpness / luminance-based QP bias \t\t\t\t: 0 / 0\nSvt[info]: SVT [config]: QP scale compress strength \t\t\t\t\t: 0\nSvt[info]: -------------------------------------------\nOutput #0, matroska, to 'C:\\Users\\Peter\\Desktop\\stuff\\MIUN\\quantitative_research\\video_compression\\compressed_videos\\BVI-HD\\av1\\2\\BricksLeaves_1920x1080_60fps_av1.mkv':\n  Metadata:\n    major_brand     : isom\n    minor_version   : 512\n    compatible_brands: isomiso2avc1mp41\n    encoder         : Lavf62.3.100\n  Stream #0:0(und): Video: av1 (AV01 / 0x31305641), yuv420p(tv, progressive), 1920x1080, q=2-31, 2000 kb/s, 60 fps, 1k tbn (default)\n    Metadata:\n      encoder         : Lavc62.11.100 libsvtav1\n      handler_name    : VideoHandler\n      vendor_id       : [0][0][0][0]\n    Side data:\n      cpb: bitrate max/min/avg: 0/0/2000000 buffer size: 2000000 vbv_delay: N/A\nframe=    0 fps=0.0 q=0.0 size=       0KiB time=N/A bitrate=N/A speed=N/A elapsed=0:00:01.03    \nframe=    0 fps=0.0 q=0.0 size=       0KiB time=N/A bitrate=N/A speed=N/A elapsed=0:00:01.61    \nframe=    0 fps=0.0 q=0.0 size=       0KiB time=N/A bitrate=N/A speed=N/A elapsed=0:00:02.14    \nframe=    0 fps=0.0 q=0.0 size=       0KiB time=N/A bitrate=N/A speed=N/A elapsed=0:00:02.71    \nframe=    0 fps=0.0 q=0.0 size=       0KiB time=N/A bitrate=N/A speed=N/A elapsed=0:00:03.28    \nframe=    0 fps=0.0 q=0.0 size=       0KiB time=N/A bitrate=N/A speed=N/A elapsed=0:00:03.82    \nframe=    0 fps=0.0 q=0.0 size=       0KiB time=N/A bitrate=N/A speed=N/A elapsed=0:00:04.38    \nframe=    0 fps=0.0 q=0.0 size=       0KiB time=N/A bitrate=N/A speed=N/A elapsed=0:00:04.92    \nframe=    0 fps=0.0 q=0.0 size=       0KiB time=N/A bitrate=N/A speed=N/A elapsed=0:00:05.44    \nframe=    0 fps=0.0 q=0.0 size=       0KiB time=N/A bitrate=N/A speed=N/A elapsed=0:00:05.98    \nframe=    0 fps=0.0 q=0.0 size=       0KiB time=N/A bitrate=N/A speed=N/A elapsed=0:00:06.55    \nframe=    0 fps=0.0 q=0.0 size=       0KiB time=N/A bitrate=N/A speed=N/A elapsed=0:00:07.11    \nframe=    0 fps=0.0 q=0.0 size=       0KiB time=N/A bitrate=N/A speed=N/A elapsed=0:00:07.63    \nframe=    0 fps=0.0 q=0.0 size=       0KiB time=N/A bitrate=N/A speed=N/A elapsed=0:00:08.16    \nframe=    0 fps=0.0 q=0.0 size=       0KiB time=N/A bitrate=N/A speed=N/A elapsed=0:00:08.70    \nframe=    0 fps=0.0 q=0.0 size=       0KiB time=N/A bitrate=N/A speed=N/A elapsed=0:00:09.25    \nframe=    0 fps=0.0 q=0.0 size=       0KiB time=N/A bitrate=N/A speed=N/A elapsed=0:00:09.81    \nframe=    0 fps=0.0 q=0.0 size=       0KiB time=N/A bitrate=N/A speed=N/A elapsed=0:00:10.38    \nframe=    0 fps=0.0 q=0.0 size=       0KiB time=N/A bitrate=N/A speed=N/A elapsed=0:00:10.89    \nframe=    0 fps=0.0 q=0.0 size=       0KiB time=N/A bitrate=N/A speed=N/A elapsed=0:00:11.42    \nframe=    0 fps=0.0 q=0.0 size=       0KiB time=N/A bitrate=N/A speed=N/A elapsed=0:00:11.97    \nframe=    0 fps=0.0 q=0.0 size=       0KiB time=N/A bitrate=N/A speed=N/A elapsed=0:00:12.51    \nframe=    0 fps=0.0 q=0.0 size=       0KiB time=N/A bitrate=N/A speed=N/A elapsed=0:00:13.08    \nframe=    0 fps=0.0 q=0.0 size=       0KiB time=N/A bitrate=N/A speed=N/A elapsed=0:00:13.62    \nframe=    0 fps=0.0 q=0.0 size=       0KiB time=N/A bitrate=N/A speed=N/A elapsed=0:00:14.18    \nframe=    0 fps=0.0 q=0.0 size=       0KiB time=N/A bitrate=N/A speed=N/A elapsed=0:00:14.70    \nframe=    0 fps=0.0 q=0.0 size=       0KiB time=N/A bitrate=N/A speed=N/A elapsed=0:00:15.24    \nframe=    0 fps=0.0 q=0.0 size=       0KiB time=N/A bitrate=N/A speed=N/A elapsed=0:00:15.77    \nframe=    0 fps=0.0 q=0.0 size=       0KiB time=N/A bitrate=N/A speed=N/A elapsed=0:00:16.32    \nframe=    0 fps=0.0 q=0.0 size=       0KiB time=N/A bitrate=N/A speed=N/A elapsed=0:00:16.88    \nframe=    0 fps=0.0 q=0.0 size=       0KiB time=N/A bitrate=N/A speed=N/A elapsed=0:00:17.41    \nframe=    0 fps=0.0 q=0.0 size=       0KiB time=N/A bitrate=N/A speed=N/A elapsed=0:00:17.95    \nframe=    0 fps=0.0 q=0.0 size=       0KiB time=N/A bitrate=N/A speed=N/A elapsed=0:00:18.49    \nframe=    0 fps=0.0 q=0.0 size=       0KiB time=N/A bitrate=N/A speed=N/A elapsed=0:00:19.01    \nframe=    0 fps=0.0 q=0.0 size=       0KiB time=N/A bitrate=N/A speed=N/A elapsed=0:00:19.55    \nframe=    0 fps=0.0 q=0.0 size=       0KiB time=N/A bitrate=N/A speed=N/A elapsed=0:00:20.06    \nframe=    0 fps=0.0 q=0.0 size=       0KiB time=N/A bitrate=N/A speed=N/A elapsed=0:00:20.58    \nframe=    0 fps=0.0 q=0.0 size=       0KiB time=N/A bitrate=N/A speed=N/A elapsed=0:00:21.10    \nframe=    0 fps=0.0 q=0.0 size=       0KiB time=N/A bitrate=N/A speed=N/A elapsed=0:00:21.64    \nframe=    1 fps=0.0 q=29.0 size=       1KiB time=00:00:00.00 bitrate=N/A speed=   0x elapsed=0:00:22.17    \nframe=    1 fps=0.0 q=29.0 size=       1KiB time=00:00:00.00 bitrate=N/A speed=   0x elapsed=0:00:22.69    \nframe=    5 fps=0.2 q=49.0 size=       1KiB time=00:00:00.06 bitrate=  85.4kbits/s speed=0.00287x elapsed=0:00:23.22    \nframe=   10 fps=0.4 q=54.0 size=       1KiB time=00:00:00.13 bitrate=  42.7kbits/s speed=0.00561x elapsed=0:00:23.75    \nframe=   17 fps=0.7 q=31.0 size=       1KiB time=00:00:00.25 bitrate=  22.8kbits/s speed=0.0103x elapsed=0:00:24.35    \nframe=   22 fps=0.9 q=53.0 size=       1KiB time=00:00:00.35 bitrate=  16.3kbits/s speed=0.014x elapsed=0:00:24.93    \nframe=   25 fps=1.0 q=54.0 size=       1KiB time=00:00:00.40 bitrate=  14.2kbits/s speed=0.0157x elapsed=0:00:25.46    \nframe=   32 fps=1.2 q=54.0 size=       1KiB time=00:00:00.51 bitrate=  11.0kbits/s speed=0.0199x elapsed=0:00:25.98    \nframe=   37 fps=1.4 q=52.0 size=       1KiB time=00:00:00.60 bitrate=   9.5kbits/s speed=0.0226x elapsed=0:00:26.50    \nframe=   41 fps=1.5 q=48.0 size=       1KiB time=00:00:00.66 bitrate=   8.5kbits/s speed=0.0246x elapsed=0:00:27.04    \nframe=   46 fps=1.7 q=54.0 size=       1KiB time=00:00:00.73 bitrate=   7.8kbits/s speed=0.0266x elapsed=0:00:27.61    \nframe=   51 fps=1.8 q=54.0 size=       1KiB time=00:00:00.83 bitrate=   6.8kbits/s speed=0.0296x elapsed=0:00:28.15    \nframe=   55 fps=1.9 q=50.0 size=       1KiB time=00:00:00.90 bitrate=   6.3kbits/s speed=0.0314x elapsed=0:00:28.69    \nframe=   59 fps=2.0 q=52.0 size=       1KiB time=00:00:00.96 bitrate=   5.9kbits/s speed=0.033x elapsed=0:00:29.26    \nframe=   65 fps=2.2 q=40.0 size=       1KiB time=00:00:01.06 bitrate=   5.3kbits/s speed=0.0358x elapsed=0:00:29.80    \nframe=   70 fps=2.3 q=55.0 size=       1KiB time=00:00:01.15 bitrate=   5.0kbits/s speed=0.0379x elapsed=0:00:30.35    \nframe=   74 fps=2.4 q=55.0 size=       1KiB time=00:00:01.21 bitrate=   4.7kbits/s speed=0.0393x elapsed=0:00:30.92    \nframe=   79 fps=2.5 q=51.0 size=       1KiB time=00:00:01.30 bitrate=   4.4kbits/s speed=0.0413x elapsed=0:00:31.46    \nframe=   84 fps=2.6 q=55.0 size=       1KiB time=00:00:01.38 bitrate=   4.1kbits/s speed=0.0432x elapsed=0:00:31.99    \nframe=   88 fps=2.7 q=55.0 size=       1KiB time=00:00:01.43 bitrate=   4.0kbits/s speed=0.044x elapsed=0:00:32.54    \nframe=   92 fps=2.8 q=55.0 size=       1KiB time=00:00:01.51 bitrate=   3.8kbits/s speed=0.0458x elapsed=0:00:33.08    \nframe=   98 fps=2.9 q=55.0 size=       1KiB time=00:00:01.61 bitrate=   3.5kbits/s speed=0.0481x elapsed=0:00:33.63    \nframe=  102 fps=3.0 q=55.0 size=       1KiB time=00:00:01.68 bitrate=   3.4kbits/s speed=0.0493x elapsed=0:00:34.17    \nframe=  105 fps=3.0 q=46.0 size=       1KiB time=00:00:01.73 bitrate=   3.3kbits/s speed=0.05x elapsed=0:00:34.70    \nframe=  109 fps=3.1 q=48.0 size=       1KiB time=00:00:01.80 bitrate=   3.2kbits/s speed=0.0511x elapsed=0:00:35.23    \nframe=  116 fps=3.2 q=55.0 size=       1KiB time=00:00:01.91 bitrate=   3.0kbits/s speed=0.0536x elapsed=0:00:35.77    \nframe=  122 fps=3.4 q=55.0 size=       1KiB time=00:00:02.00 bitrate=   2.8kbits/s speed=0.0551x elapsed=0:00:36.29    \nframe=  127 fps=3.4 q=52.0 size=       1KiB time=00:00:02.06 bitrate=   2.8kbits/s speed=0.056x elapsed=0:00:36.89    \nframe=  132 fps=3.5 q=56.0 size=       1KiB time=00:00:02.16 bitrate=   2.6kbits/s speed=0.0578x elapsed=0:00:37.47    \nframe=  136 fps=3.6 q=56.0 size=       1KiB time=00:00:02.23 bitrate=   2.6kbits/s speed=0.0586x elapsed=0:00:38.08    \nframe=  140 fps=3.6 q=56.0 size=       1KiB time=00:00:02.30 bitrate=   2.5kbits/s speed=0.0595x elapsed=0:00:38.66    \nframe=  146 fps=3.7 q=56.0 size=       1KiB time=00:00:02.40 bitrate=   2.4kbits/s speed=0.0612x elapsed=0:00:39.23    \nframe=  149 fps=3.7 q=53.0 size=       1KiB time=00:00:02.46 bitrate=   2.3kbits/s speed=0.0618x elapsed=0:00:39.90    \nframe=  151 fps=3.7 q=51.0 size=       1KiB time=00:00:02.50 bitrate=   2.3kbits/s speed=0.0617x elapsed=0:00:40.51    \nframe=  155 fps=3.8 q=53.0 size=       1KiB time=00:00:02.56 bitrate=   2.2kbits/s speed=0.0624x elapsed=0:00:41.14    \nframe=  159 fps=3.8 q=53.0 size=       1KiB time=00:00:02.63 bitrate=   2.2kbits/s speed=0.0631x elapsed=0:00:41.71    \nframe=  163 fps=3.9 q=55.0 size=       1KiB time=00:00:02.70 bitrate=   2.1kbits/s speed=0.0638x elapsed=0:00:42.28    \nframe=  166 fps=3.9 q=56.0 size=       1KiB time=00:00:02.75 bitrate=   2.1kbits/s speed=0.0641x elapsed=0:00:42.88    \nframe=  170 fps=3.9 q=56.0 size=       1KiB time=00:00:02.80 bitrate=   2.0kbits/s speed=0.0644x elapsed=0:00:43.49    \nframe=  172 fps=3.9 q=57.0 size=       1KiB time=00:00:02.85 bitrate=   2.0kbits/s speed=0.0646x elapsed=0:00:44.14    \nframe=  179 fps=4.0 q=55.0 size=       1KiB time=00:00:02.96 bitrate=   1.9kbits/s speed=0.0664x elapsed=0:00:44.70    \nframe=  183 fps=4.0 q=55.0 size=       1KiB time=00:00:03.03 bitrate=   1.9kbits/s speed=0.067x elapsed=0:00:45.26    \nframe=  191 fps=4.2 q=55.0 size=       1KiB time=00:00:03.16 bitrate=   1.8kbits/s speed=0.0691x elapsed=0:00:45.82    \nframe=  199 fps=4.3 q=55.0 size=       1KiB time=00:00:03.30 bitrate=   1.7kbits/s speed=0.0711x elapsed=0:00:46.39    \nframe=  207 fps=4.4 q=59.0 size=       1KiB time=00:00:03.43 bitrate=   1.7kbits/s speed=0.073x elapsed=0:00:47.00    \nframe=  217 fps=4.6 q=53.0 size=       1KiB time=00:00:03.60 bitrate=   1.6kbits/s speed=0.0757x elapsed=0:00:47.53    \nframe=  229 fps=4.8 q=62.0 size=       1KiB time=00:00:03.80 bitrate=   1.5kbits/s speed=0.0791x elapsed=0:00:48.05    \nframe=  243 fps=5.0 q=63.0 size=       1KiB time=00:00:04.03 bitrate=   1.4kbits/s speed=0.083x elapsed=0:00:48.58    \nframe=  253 fps=5.2 q=62.0 size=       1KiB time=00:00:04.20 bitrate=   1.4kbits/s speed=0.0855x elapsed=0:00:49.10    \nframe=  263 fps=5.3 q=62.0 size=       1KiB time=00:00:04.36 bitrate=   1.3kbits/s speed=0.088x elapsed=0:00:49.63    \nframe=  269 fps=5.4 q=63.0 size=       1KiB time=00:00:04.46 bitrate=   1.3kbits/s speed=0.0891x elapsed=0:00:50.14    \nframe=  281 fps=5.5 q=63.0 size=       1KiB time=00:00:04.66 bitrate=   1.2kbits/s speed=0.0921x elapsed=0:00:50.67    \n[out#0/matroska @ 000002318dbc90c0] video:1167KiB audio:0KiB subtitle:0KiB other streams:0KiB global headers:0KiB muxing overhead: 0.177687%\nframe=  300 fps=5.9 q=63.0 Lsize=    1169KiB time=00:00:04.98 bitrate=1921.5kbits/s speed=0.0975x elapsed=0:00:51.11    \n",
  "seconds": 51.6983323097229,
  "probe_out": {}
}